<svg width="15" height="15" viewBox="0 0 15 15" fill="none" xmlns="http://www.w3.org/2000/svg">
<path d="M8.72295 9.05176C9.16563 8.90867 9.7324 9.99638 10.3358 10.4127C10.7886 10.728 11.1355 10.6599 11.1355 10.6599L12.7436 10.6368C12.7436 10.6368 13.5841 10.5849 13.1868 9.9172C13.1539 9.86163 12.9539 9.4222 11.9898 8.51786C10.9817 7.57185 11.1183 7.72512 12.332 6.08962C13.0715 5.09267 13.3674 4.48376 13.2747 4.22445C13.1858 3.97486 12.6427 4.03969 12.6427 4.03969L10.8308 4.05219C10.6543 4.05265 10.5048 4.10729 10.4367 4.29066C10.4353 4.29252 10.1492 5.06211 9.7676 5.7164C8.96142 7.10046 8.6396 7.17408 8.50624 7.08749C8.20017 6.88699 8.2775 6.28317 8.2775 5.85392C8.2775 4.51246 8.47754 3.9531 7.88576 3.80863C7.68803 3.76047 7.54356 3.72898 7.0393 3.72435C6.39473 3.71463 5.8474 3.72435 5.53716 3.8767C5.3311 3.97996 5.1732 4.20639 5.26905 4.21935C5.38945 4.23556 5.65941 4.29344 5.80388 4.4907C5.98956 4.74631 5.984 5.3191 5.984 5.3191C5.984 5.3191 6.09004 6.89857 5.73396 7.09444C5.48947 7.22872 5.15514 6.9546 4.43602 5.69788C4.06882 5.05516 3.79146 4.34484 3.79146 4.34484C3.79146 4.34484 3.73774 4.21287 3.6405 4.14063C3.52474 4.05497 3.36267 4.02765 3.36267 4.02765L1.6429 4.03876C1.6429 4.03876 1.38452 4.04617 1.28959 4.16008C1.20531 4.26103 1.28264 4.4694 1.28264 4.4694C1.28264 4.4694 2.62966 7.65566 4.15495 9.26059C5.55337 10.734 7.14256 10.6363 7.14256 10.6363H7.8626C7.8626 10.6363 8.07977 10.6113 8.19091 10.4918C8.29463 10.3807 8.29 10.1719 8.29 10.1719C8.29 10.1719 8.27565 9.1953 8.72295 9.05176Z" fill="#030A1A"/>
</svg>
